<svg xmlns="http://www.w3.org/2000/svg" width="300" zoomAndPan="magnify" viewBox="0 0 224.88 225" height="300" preserveAspectRatio="xMidYMid meet" xmlns:v="https://vecta.io/nano"><defs><clipPath id="A"><path d="M.316.375h222.629V223H.316zm0 0" clip-rule="nonzero"/></clipPath></defs><g clip-path="url(#A)"><path fill="#fff" d="M111.555.375l-5.457.137-5.445.398-5.418.668-5.379.934-5.328 1.199-5.262 1.453-5.187 1.715-5.094 1.965-4.988 2.211-4.879 2.457-4.75 2.691-4.613 2.922-4.465 3.141-4.305 3.359-4.133 3.566-3.953 3.766-3.766 3.953-3.566 4.137-3.359 4.305-3.145 4.461-2.922 4.613-2.691 4.75-2.453 4.879-2.211 4.992-1.965 5.094-1.715 5.184-1.457 5.262-1.195 5.328-.934 5.379-.668 5.418-.402 5.445-.133 5.461.133 5.457.402 5.445.668 5.418.934 5.379 1.195 5.328 1.457 5.262 1.715 5.184 1.965 5.094 2.211 4.992 2.453 4.879 2.691 4.75 2.922 4.613 3.145 4.461 3.359 4.305 3.566 4.137 3.766 3.953 3.953 3.766 4.133 3.566 4.305 3.359 4.465 3.145 4.613 2.918 4.75 2.691 4.879 2.457 4.988 2.211 5.094 1.965 5.188 1.715 5.262 1.453 5.328 1.199 5.379.934 5.418.668 5.445.402 5.457.133 5.457-.133 5.445-.402 5.422-.668 5.379-.934 5.328-1.199 5.262-1.453 5.184-1.715 5.094-1.965 4.992-2.211 4.875-2.457 4.75-2.691 4.613-2.918 4.465-3.145 4.305-3.359 4.133-3.566 3.957-3.766 3.762-3.953 3.566-4.137 3.359-4.305 3.145-4.461 2.922-4.613 2.691-4.75 2.453-4.879 2.215-4.992 1.965-5.094 1.711-5.184 1.457-5.262 1.195-5.328.934-5.379.668-5.418.402-5.445.133-5.457-.133-5.461-.402-5.445-.668-5.418-.934-5.379-1.195-5.328-1.457-5.262-1.711-5.184-1.965-5.094-2.215-4.992-2.453-4.879-2.691-4.75-2.922-4.613-3.145-4.461-3.359-4.305-3.566-4.137-3.762-3.953-3.957-3.766-4.133-3.566-4.305-3.359-4.465-3.141-4.613-2.922-4.75-2.691-4.875-2.457-4.992-2.211-5.094-1.965-5.184-1.715-5.262-1.453-5.328-1.199-5.379-.934-5.422-.668-5.445-.398-5.457-.137zm65.734 151.691l-.125 2.477-.367 2.453a25.48 25.48 0 0 1-.602 2.406l-.84 2.336-1.059 2.242c-.391.73-.816 1.438-1.277 2.125l-1.477 1.992-1.668 1.84-1.836 1.664a24.3 24.3 0 0 1-1.992 1.477l-2.129 1.277-2.242 1.063-2.332.836-2.406.605-2.453.363-2.477.125H71.105c-.828 0-1.656-.043-2.477-.125l-2.453-.363-2.406-.605-2.336-.836c-.766-.316-1.512-.672-2.242-1.062l-2.129-1.277a23.59 23.59 0 0 1-1.988-1.477c-.641-.523-1.254-1.082-1.84-1.664l-1.664-1.84-1.48-1.992-1.273-2.125-1.062-2.242-.836-2.336c-.242-.793-.445-1.594-.605-2.406l-.367-2.453-.121-2.477V71.164l.121-2.477c.082-.824.207-1.641.367-2.453s.363-1.613.605-2.406.52-1.57.836-2.336l1.063-2.242 1.273-2.125 1.48-1.992a24.72 24.72 0 0 1 1.664-1.84l1.84-1.664a23.59 23.59 0 0 1 1.988-1.477l2.129-1.277 2.242-1.062 2.336-.836a25.2 25.2 0 0 1 2.406-.605l2.453-.363c.82-.082 1.648-.125 2.477-.125h80.902c.824 0 1.652.043 2.477.125l2.453.363 2.406.605 2.332.836c.766.316 1.512.672 2.242 1.063l2.129 1.277a24.3 24.3 0 0 1 1.992 1.477c.641.523 1.25 1.082 1.836 1.664l1.668 1.84 1.477 1.992c.461.688.887 1.398 1.277 2.125l1.059 2.242a24.83 24.83 0 0 1 .84 2.336l.602 2.406.367 2.453.125 2.477zm0 0"/></g><path d="M152.008 55.996H71.105a15.07 15.07 0 0 0-2.961.293 15.21 15.21 0 0 0-2.844.867 14.96 14.96 0 0 0-2.621 1.402c-.828.551-1.594 1.18-2.297 1.887s-1.332 1.469-1.887 2.297a15.35 15.35 0 0 0-1.402 2.621c-.379.918-.668 1.867-.863 2.844a15.03 15.03 0 0 0-.293 2.957v80.902a15.03 15.03 0 0 0 .293 2.957c.195.977.484 1.926.863 2.844a15.35 15.35 0 0 0 1.402 2.621 15.44 15.44 0 0 0 1.887 2.301 14.98 14.98 0 0 0 2.297 1.883 14.96 14.96 0 0 0 2.621 1.402 15.21 15.21 0 0 0 2.844.867 15.07 15.07 0 0 0 2.961.293h80.902a15.06 15.06 0 0 0 2.957-.293 15.08 15.08 0 0 0 2.844-.867 14.96 14.96 0 0 0 2.621-1.402 14.98 14.98 0 0 0 2.297-1.883 15.44 15.44 0 0 0 1.887-2.301c.555-.828 1.02-1.699 1.402-2.621s.672-1.867.863-2.844.297-1.961.297-2.957V71.164c0-.996-.102-1.98-.297-2.957a14.98 14.98 0 0 0-.863-2.844c-.383-.918-.848-1.793-1.402-2.621s-1.184-1.594-1.887-2.297-1.469-1.336-2.297-1.887a14.96 14.96 0 0 0-2.621-1.402 15.08 15.08 0 0 0-2.844-.867 15.06 15.06 0 0 0-2.957-.293zm-40.453 91.012a35.54 35.54 0 0 1-3.469-.168l-3.437-.512-3.367-.844-3.27-1.168-3.141-1.484-2.98-1.789c-.965-.641-1.895-1.332-2.789-2.066l-2.574-2.332-2.332-2.574-2.07-2.789a35.35 35.35 0 0 1-1.785-2.98l-1.484-3.141c-.445-1.07-.832-2.16-1.172-3.27l-.844-3.371a35.14 35.14 0 0 1-.508-3.434l-.172-3.469c0-1.16.059-2.316.172-3.473l.508-3.434.844-3.371 1.172-3.27a34.88 34.88 0 0 1 1.484-3.141l1.785-2.977 2.07-2.793 2.332-2.574 2.574-2.332 2.789-2.066 2.98-1.789 3.141-1.484 3.27-1.168 3.367-.844 3.438-.512c1.152-.113 2.309-.168 3.469-.168l3.469.168 3.438.512 3.367.844 3.273 1.168 3.137 1.484a35.39 35.39 0 0 1 2.98 1.789c.965.641 1.895 1.332 2.789 2.066l2.574 2.332 2.332 2.574a35.1 35.1 0 0 1 2.07 2.793 35.28 35.28 0 0 1 1.785 2.977l1.484 3.141c.445 1.07.836 2.16 1.172 3.27l.844 3.371.508 3.434c.117 1.156.172 2.313.172 3.473l-.172 3.465-.516 3.434-.844 3.371-1.176 3.266a34.88 34.88 0 0 1-1.484 3.141l-1.785 2.977-2.07 2.789-2.332 2.57a34.65 34.65 0 0 1-2.574 2.332l-2.785 2.07-2.98 1.785-3.137 1.488c-1.07.445-2.16.836-3.27 1.172l-3.367.848-3.434.512-3.469.172zm25.281-35.391l-.121 2.477-.363 2.453a25.48 25.48 0 0 1-.602 2.406l-.836 2.336-1.062 2.242-1.273 2.129-1.48 1.992a24.72 24.72 0 0 1-1.664 1.84l-1.84 1.668-1.992 1.477a24.91 24.91 0 0 1-2.129 1.273l-2.242 1.063-2.336.836-2.406.602a23.81 23.81 0 0 1-2.453.363l-2.48.125c-.828 0-1.652-.043-2.477-.125a23.5 23.5 0 0 1-2.453-.363 25.33 25.33 0 0 1-2.41-.602l-2.336-.836-2.242-1.062-2.129-1.273-1.992-1.477-1.836-1.668-1.668-1.84-1.477-1.992-1.277-2.129c-.391-.727-.742-1.477-1.059-2.242l-.836-2.336a25.5 25.5 0 0 1-.605-2.406l-.363-2.453-.121-2.477.121-2.48.363-2.453.605-2.406c.238-.793.52-1.57.836-2.336l1.059-2.242a24.95 24.95 0 0 1 1.277-2.129l1.477-1.992 1.668-1.84 1.836-1.664 1.992-1.48 2.129-1.273 2.242-1.062 2.336-.836 2.41-.602a23.5 23.5 0 0 1 2.453-.363l2.477-.125a25.05 25.05 0 0 1 2.48.125 23.81 23.81 0 0 1 2.453.363l2.406.602 2.336.836c.766.316 1.512.672 2.242 1.063l2.129 1.273 1.992 1.48 1.84 1.664a24.72 24.72 0 0 1 1.664 1.84l1.48 1.992 1.273 2.129 1.063 2.242.836 2.336.602 2.406.363 2.453a25.05 25.05 0 0 1 .121 2.48zm0 0" fill="#fff"/></svg>