<svg xmlns="http://www.w3.org/2000/svg" xmlns:xlink="http://www.w3.org/1999/xlink" width="300" zoomAndPan="magnify" viewBox="0 0 224.87999 225" height="300" preserveAspectRatio="xMidYMid meet" version="1.0"><defs><clipPath id="4d566193f2"><path d="M 0 0.0585938 L 224.761719 0.0585938 L 224.761719 224.9375 L 0 224.9375 Z M 0 0.0585938 " clip-rule="nonzero"/></clipPath><clipPath id="69feb5e701"><path d="M 35.015625 41.238281 L 174.867188 41.238281 L 174.867188 205.675781 L 35.015625 205.675781 Z M 35.015625 41.238281 " clip-rule="nonzero"/></clipPath><clipPath id="1aa2bb20eb"><path d="M 79.988281 41.238281 L 129.890625 41.238281 C 154.730469 41.238281 174.867188 61.375 174.867188 86.214844 L 174.867188 160.53125 C 174.867188 185.371094 154.730469 205.503906 129.890625 205.503906 L 79.988281 205.503906 C 55.152344 205.503906 35.015625 185.371094 35.015625 160.53125 L 35.015625 86.214844 C 35.015625 61.375 55.152344 41.238281 79.988281 41.238281 Z M 79.988281 41.238281 " clip-rule="nonzero"/></clipPath><clipPath id="0cdcbb67e9"><path d="M 0.015625 0.238281 L 139.867188 0.238281 L 139.867188 164.628906 L 0.015625 164.628906 Z M 0.015625 0.238281 " clip-rule="nonzero"/></clipPath><clipPath id="e2a429407c"><path d="M 44.988281 0.238281 L 94.890625 0.238281 C 119.730469 0.238281 139.867188 20.375 139.867188 45.214844 L 139.867188 119.53125 C 139.867188 144.371094 119.730469 164.503906 94.890625 164.503906 L 44.988281 164.503906 C 20.152344 164.503906 0.015625 144.371094 0.015625 119.53125 L 0.015625 45.214844 C 0.015625 20.375 20.152344 0.238281 44.988281 0.238281 Z M 44.988281 0.238281 " clip-rule="nonzero"/></clipPath><clipPath id="cd8670f200"><rect x="0" width="140" y="0" height="165"/></clipPath><clipPath id="13d1b28f86"><path d="M 0 0.0585938 L 224.761719 0.0585938 L 224.761719 224.9375 L 0 224.9375 Z M 0 0.0585938 " clip-rule="nonzero"/></clipPath><clipPath id="9c03f6e1cb"><path d="M 0 0.0585938 L 224.761719 0.0585938 L 224.761719 224.9375 L 0 224.9375 Z M 0 0.0585938 " clip-rule="nonzero"/></clipPath><clipPath id="53835f6c2f"><rect x="0" width="225" y="0" height="225"/></clipPath><clipPath id="54ae2a3bcc"><rect x="0" width="225" y="0" height="225"/></clipPath></defs><g clip-path="url(#4d566193f2)"><g transform="matrix(1, 0, 0, 1, 0, -0.000000000000003234)"><g clip-path="url(#54ae2a3bcc)"><g clip-path="url(#69feb5e701)"><g clip-path="url(#1aa2bb20eb)"><g transform="matrix(1, 0, 0, 1, 35, 41)"><g clip-path="url(#cd8670f200)"><g clip-path="url(#0cdcbb67e9)"><g clip-path="url(#e2a429407c)"><path fill="#000000" d="M 0.015625 0.238281 L 139.867188 0.238281 L 139.867188 164.675781 L 0.015625 164.675781 Z M 0.015625 0.238281 " fill-opacity="1" fill-rule="nonzero"/></g></g></g></g></g></g><g clip-path="url(#13d1b28f86)"><g transform="matrix(1, 0, 0, 1, 0, -0.000000000000003234)"><g clip-path="url(#53835f6c2f)"><g clip-path="url(#9c03f6e1cb)"><path fill="#ffffff" d="M 112.441406 0.0585938 C 174.398438 0.0585938 224.878906 50.539062 224.878906 112.5 C 224.878906 174.460938 174.398438 224.941406 112.441406 224.941406 C 50.480469 224.941406 0 174.460938 0 112.5 C 0 50.539062 50.480469 0.0585938 112.441406 0.0585938 Z M 127.960938 58.679688 L 71.738281 102.894531 C 66.058594 107.347656 66 115.957031 71.621094 120.464844 L 127.84375 166.203125 C 132.644531 170.125 139.730469 169.363281 143.652344 164.5625 C 147.578125 159.761719 146.816406 152.675781 142.015625 148.75 L 96.6875 111.855469 L 141.898438 76.367188 C 146.757812 72.5 147.578125 65.414062 143.769531 60.554688 C 139.4375 55.753906 133.171875 54.875 127.960938 58.679688 Z M 127.960938 58.679688 " fill-opacity="1" fill-rule="nonzero"/></g></g></g></g></g></g></g></svg>