<svg xmlns="http://www.w3.org/2000/svg" width="300" zoomAndPan="magnify" viewBox="0 0 224.88 225" height="300" preserveAspectRatio="xMidYMid meet" xmlns:v="https://vecta.io/nano"><defs><clipPath id="A"><path d="M0 .059h224.762v224.879H0zm0 0" clip-rule="nonzero"/></clipPath></defs><g clip-path="url(#A)"><path fill="#fff" d="M152.598 76.359c0 .262-.027.523-.078.781a4.1 4.1 0 0 1-.227.754c-.102.246-.227.477-.371.695s-.316.422-.5.609-.391.352-.609.5-.449.27-.695.371a4.1 4.1 0 0 1-.754.227c-.258.051-.52.078-.781.078s-.527-.027-.785-.078a4.29 4.29 0 0 1-.754-.227c-.242-.102-.473-.227-.691-.371s-.422-.316-.609-.5a4.15 4.15 0 0 1-.5-.609c-.145-.219-.27-.449-.371-.695s-.176-.492-.227-.754a3.76 3.76 0 0 1-.078-.781 3.77 3.77 0 0 1 .078-.785 3.98 3.98 0 0 1 .227-.754c.102-.242.227-.473.371-.691a4.15 4.15 0 0 1 1.109-1.109c.219-.145.449-.27.691-.371a3.98 3.98 0 0 1 .754-.227 3.77 3.77 0 0 1 .785-.078 3.76 3.76 0 0 1 .781.078c.262.051.512.125.754.227s.477.227.695.371a4.15 4.15 0 0 1 .609.5c.184.188.352.391.5.609s.27.449.371.691a4.29 4.29 0 0 1 .227.754c.051.258.078.52.078.785zm-40.156 20.078l-1.574.078-1.562.23a15.87 15.87 0 0 0-1.527.383l-1.484.531-1.426.672-1.352.813-1.266.938-1.168 1.059-1.059 1.168-.937 1.266-.812 1.355-.672 1.422a15.62 15.62 0 0 0-.531 1.484l-.383 1.531c-.105.516-.18 1.035-.234 1.559l-.074 1.574.074 1.574.234 1.559.383 1.531.531 1.484c.199.484.426.961.672 1.422l.813 1.355c.289.438.605.859.938 1.266s.688.793 1.059 1.168l1.168 1.059 1.266.938 1.352.813 1.426.672c.484.203.98.379 1.484.531l1.527.383 1.563.23 1.574.078c.523 0 1.051-.027 1.574-.078l1.559-.23a15.87 15.87 0 0 0 1.527-.383l1.484-.531c.488-.199.961-.426 1.426-.672l1.352-.812 1.266-.937 1.168-1.059 1.059-1.168a15.62 15.62 0 0 0 .941-1.266 15.31 15.31 0 0 0 .809-1.355c.25-.461.473-.937.676-1.422l.531-1.484.383-1.531.23-1.559.078-1.574-.078-1.574c-.051-.523-.129-1.043-.23-1.559l-.383-1.531-.531-1.484-.676-1.422a15.31 15.31 0 0 0-.809-1.355l-.941-1.266a15.69 15.69 0 0 0-1.059-1.168l-1.168-1.059-1.266-.937-1.352-.812-1.426-.672c-.484-.203-.98-.379-1.484-.531l-1.527-.383-1.559-.23-1.574-.078zm52.203-28.109v88.344c0 .527-.051 1.051-.156 1.566s-.254 1.02-.457 1.508-.449.949-.742 1.391-.625.844-.996 1.215a8.06 8.06 0 0 1-1.219 1c-.437.293-.902.539-1.387.742a8.49 8.49 0 0 1-1.508.457c-.516.102-1.039.152-1.566.152H68.266c-.527 0-1.047-.051-1.566-.152s-1.02-.258-1.504-.457-.953-.449-1.391-.742a7.84 7.84 0 0 1-2.215-2.215 8.19 8.19 0 0 1-.742-1.391c-.203-.488-.355-.988-.457-1.508a8.1 8.1 0 0 1-.156-1.566V68.328a8.1 8.1 0 0 1 .156-1.566c.102-.52.254-1.02.457-1.508a8.19 8.19 0 0 1 .742-1.391 7.84 7.84 0 0 1 2.215-2.215c.438-.293.902-.539 1.391-.742s.988-.352 1.504-.457 1.039-.152 1.566-.152h88.348c.527 0 1.051.051 1.566.152a8.49 8.49 0 0 1 1.508.457c.484.203.949.449 1.387.742a8.06 8.06 0 0 1 1.219 1c.371.371.703.777.996 1.215s.543.902.742 1.391.355.988.457 1.508.156 1.039.156 1.566zM144.566 112.5l-.156-3.148a32.23 32.23 0 0 0-.461-3.117l-.766-3.059-1.062-2.969-1.348-2.852-1.621-2.703-1.879-2.531-2.117-2.336c-.742-.746-1.523-1.453-2.336-2.117l-2.531-1.879-2.707-1.621a31.59 31.59 0 0 0-2.848-1.348l-2.969-1.062-3.059-.766a32.24 32.24 0 0 0-3.117-.465l-3.148-.152-3.148.152-3.121.465c-1.031.203-2.051.461-3.059.766l-2.969 1.063-2.848 1.348-2.703 1.621c-.875.582-1.723 1.211-2.535 1.879a31.46 31.46 0 0 0-2.336 2.117l-2.117 2.336-1.879 2.531-1.617 2.703-1.352 2.852c-.402.973-.754 1.961-1.059 2.969s-.562 2.023-.77 3.059l-.461 3.117-.156 3.148a32.61 32.61 0 0 0 .156 3.148 32.23 32.23 0 0 0 .461 3.117l.77 3.059 1.059 2.969 1.352 2.852 1.617 2.703 1.879 2.531c.668.816 1.375 1.594 2.117 2.336l2.336 2.117 2.535 1.879c.871.586 1.773 1.125 2.703 1.621l2.848 1.348 2.969 1.063 3.059.766a32.14 32.14 0 0 0 3.121.465l3.148.152 3.148-.152 3.117-.465c1.031-.203 2.051-.461 3.059-.766l2.969-1.062 2.848-1.348c.93-.496 1.832-1.035 2.707-1.621s1.719-1.211 2.531-1.879 1.594-1.371 2.336-2.117l2.117-2.336 1.879-2.531 1.621-2.703 1.348-2.852 1.063-2.969c.305-1.004.559-2.023.766-3.059l.461-3.117c.105-1.047.156-2.098.156-3.148zm16.063-36.141a12.18 12.18 0 0 0-.23-2.352c-.156-.773-.383-1.527-.687-2.258a11.75 11.75 0 0 0-1.113-2.086c-.437-.656-.937-1.266-1.496-1.824a12.25 12.25 0 0 0-1.828-1.5c-.656-.437-1.352-.809-2.082-1.113s-1.484-.531-2.258-.684a11.91 11.91 0 0 0-2.352-.23 11.88 11.88 0 0 0-2.352.23c-.773.152-1.527.383-2.258.684a12.43 12.43 0 0 0-2.086 1.113c-.656.441-1.266.941-1.824 1.5s-1.059 1.168-1.496 1.824a11.75 11.75 0 0 0-1.113 2.086c-.305.73-.531 1.484-.687 2.258a12.18 12.18 0 0 0-.23 2.352 12.14 12.14 0 0 0 .23 2.348c.156.777.383 1.531.688 2.262s.672 1.426 1.113 2.082.938 1.266 1.496 1.828 1.168 1.059 1.824 1.496 1.355.813 2.086 1.113 1.484.531 2.258.688a12.18 12.18 0 0 0 2.352.23 12.21 12.21 0 0 0 2.352-.23c.773-.156 1.527-.383 2.258-.687s1.426-.672 2.082-1.113 1.266-.937 1.828-1.496 1.059-1.168 1.496-1.828.813-1.352 1.113-2.082.531-1.484.688-2.262a12.14 12.14 0 0 0 .23-2.348zm64.25 36.141l-.133 5.516-.406 5.504-.676 5.48-.945 5.438-1.207 5.383-1.473 5.32-1.73 5.238-1.988 5.148-2.234 5.047-2.484 4.93-2.719 4.801-2.953 4.664-3.176 4.512-3.398 4.352-3.602 4.18-3.809 3.996-3.996 3.805-4.18 3.605-4.348 3.395-4.512 3.18-4.664 2.949-4.801 2.723-4.93 2.48-5.047 2.238-5.148 1.984-5.242 1.73-5.316 1.473-5.387 1.211-5.437.941-5.477.676-5.504.406-5.516.137a113.15 113.15 0 0 1-5.52-.137l-5.504-.406-5.477-.676-5.437-.941-5.383-1.211-5.32-1.473-5.242-1.73-5.148-1.984-5.043-2.238-4.93-2.48-4.805-2.723-4.66-2.949-4.512-3.18-4.352-3.395-4.18-3.605-3.996-3.805-3.805-3.996-3.605-4.18-3.395-4.352-3.18-4.512-2.953-4.664-2.719-4.801-2.48-4.93-2.238-5.047-1.984-5.148-1.734-5.238-1.469-5.32-1.211-5.383L1.219 129l-.676-5.48-.406-5.504L0 112.5l.137-5.516.406-5.504.676-5.48.941-5.437 1.211-5.383 1.469-5.32 1.734-5.238 1.984-5.148 2.238-5.047 2.48-4.93 2.719-4.801 2.953-4.664 3.18-4.512 3.395-4.352 3.605-4.18 3.805-3.996 3.996-3.805 4.18-3.605 4.352-3.395 4.512-3.18 4.66-2.949 4.805-2.723 4.93-2.48 5.043-2.238 5.148-1.984 5.242-1.73 5.32-1.473 5.383-1.211 5.438-.941 5.477-.676 5.504-.406 5.52-.137 5.516.137 5.504.406 5.477.676 5.438.941 5.387 1.211 5.316 1.473 5.242 1.73 5.148 1.984 5.047 2.238 4.93 2.48 4.801 2.723 4.664 2.949 4.512 3.18 4.348 3.395 4.18 3.605 3.996 3.805 3.809 3.996 3.602 4.18 3.398 4.352 3.176 4.512 2.953 4.664 2.719 4.801 2.484 4.93 2.234 5.047 1.988 5.148 1.73 5.238 1.473 5.32 1.207 5.383.945 5.438.676 5.48.406 5.504.133 5.516zm-44.172-44.172l-.117-2.363c-.074-.785-.191-1.562-.348-2.34a23.42 23.42 0 0 0-.574-2.293 22.9 22.9 0 0 0-.797-2.227l-1.008-2.137-1.215-2.027-1.41-1.898-1.59-1.754c-.555-.559-1.141-1.086-1.75-1.586L170 48.293l-2.027-1.215-2.141-1.012-2.227-.797-2.293-.574-2.34-.348-2.359-.113H68.266l-2.359.113-2.34.348-2.293.574-2.227.797a23.72 23.72 0 0 0-2.137 1.012l-2.027 1.215-1.902 1.41-1.75 1.586-1.59 1.754-1.406 1.898-1.215 2.027c-.375.695-.711 1.41-1.012 2.137a22.9 22.9 0 0 0-.797 2.227 23.42 23.42 0 0 0-.574 2.293 23.8 23.8 0 0 0-.348 2.34l-.117 2.363v88.344c0 .789.039 1.578.117 2.363l.348 2.34a23.42 23.42 0 0 0 .574 2.293 22.9 22.9 0 0 0 .797 2.227l1.012 2.137c.371.695.777 1.371 1.215 2.027l1.406 1.898 1.59 1.754 1.75 1.586 1.902 1.41 2.027 1.215 2.137 1.012 2.227.797 2.293.574 2.34.348 2.359.113h88.348l2.359-.113 2.34-.348 2.293-.574 2.227-.797c.73-.301 1.441-.641 2.141-1.012s1.371-.777 2.027-1.215 1.289-.91 1.898-1.41l1.75-1.586 1.59-1.754 1.41-1.898 1.215-2.027 1.008-2.137a22.9 22.9 0 0 0 .797-2.227l.574-2.293c.156-.777.273-1.555.348-2.34l.117-2.363zm0 0"/></g></svg>