<svg xmlns="http://www.w3.org/2000/svg" width="300" zoomAndPan="magnify" viewBox="0 0 224.88 225" height="300" preserveAspectRatio="xMidYMid meet" xmlns:v="https://vecta.io/nano"><defs><clipPath id="A"><path d="M0 .059h223.379v223.383H0zm0 0" clip-rule="nonzero"/></clipPath></defs><path d="M81.18 112.445l-34.035 36.418V95.09zm51.91 4.692l36.715 39.324H53.621l36.719-39.324 19.141 9.754a4.41 4.41 0 0 0 2.234.598 4.4 4.4 0 0 0 2.234-.598zm43.195-45.059v11.84l-64.57 32.996-64.57-32.996v-11.84c0-.328.031-.652.094-.973s.16-.633.285-.937a4.8 4.8 0 0 1 .461-.863c.184-.273.391-.523.621-.754a4.92 4.92 0 0 1 .754-.621c.27-.18.563-.336.863-.461s.617-.219.938-.285a4.81 4.81 0 0 1 .973-.094h119.16a5.14 5.14 0 0 1 1.911.379 4.82 4.82 0 0 1 .863.461c.273.18.523.387.758.621a5.06 5.06 0 0 1 .621.754c.183.27.332.563.461.863s.219.617.281.938a5.12 5.12 0 0 1 .098.973zm-34.035 40.367l34.035-17.355v53.773zm0 0" fill="#fff"/><g clip-path="url(#A)"><path fill="#fff" d="M111.715.059l-5.484.137-5.465.402-5.445.672-5.402.938-5.348 1.199-5.285 1.465-5.207 1.719-5.117 1.973-5.012 2.223-4.898 2.465-4.77 2.703-4.633 2.934-4.484 3.156-4.32 3.375L36.691 29l-3.973 3.781-3.781 3.969-3.578 4.152-3.375 4.324-3.156 4.48-2.934 4.633-2.703 4.773-2.465 4.898-2.223 5.012-1.973 5.113-1.723 5.207-1.461 5.285-1.199 5.352-.937 5.402-.672 5.441-.406 5.469-.133 5.48.133 5.48.406 5.469.672 5.441.938 5.402 1.199 5.352 1.461 5.285 1.723 5.207 1.973 5.113 2.223 5.016 2.465 4.895 2.703 4.773 2.934 4.633 3.156 4.48 3.375 4.324 3.578 4.152 3.781 3.969 3.973 3.781 4.152 3.582 4.32 3.375 4.484 3.156 4.633 2.934 4.77 2.703 4.898 2.465 5.012 2.223 5.117 1.973 5.207 1.719 5.285 1.465 5.348 1.199 5.402.938 5.445.672 5.465.402 5.484.137 5.48-.137 5.469-.402 5.441-.672 5.402-.937 5.352-1.199 5.285-1.465 5.203-1.719 5.117-1.973 5.012-2.223 4.898-2.465 4.77-2.703 4.633-2.934 4.484-3.156 4.324-3.375 4.148-3.582 3.973-3.781 3.781-3.969 3.582-4.152 3.371-4.324 3.16-4.48 2.934-4.633 2.703-4.773 2.465-4.895 2.223-5.016 1.973-5.113 1.719-5.207 1.461-5.285 1.203-5.352.938-5.402.672-5.441.402-5.469.133-5.48-.133-5.48-.406-5.469-.672-5.441-.941-5.402-1.203-5.348-1.461-5.285-1.723-5.203-1.973-5.117-2.223-5.012-2.465-4.895-2.703-4.77-2.934-4.633-3.16-4.484-3.371-4.32-3.582-4.152-3.781-3.969-3.969-3.781-4.152-3.582-4.324-3.371-4.48-3.16-4.633-2.934-4.77-2.703-4.898-2.465-5.012-2.223-5.113-1.973-5.207-1.723-5.281-1.465-5.352-1.199-5.398-.941-5.441-.672-5.469-.406-5.48-.137zm74.477 151.41a14.54 14.54 0 0 1-1.078 5.551c-.723 1.777-1.754 3.355-3.094 4.727v.074h-.074c0 .074 0 .074-.074.074a14.37 14.37 0 0 1-4.828 3.328c-1.836.773-3.754 1.156-5.75 1.141H52.133c-2.023.004-3.965-.387-5.824-1.176s-3.496-1.91-4.898-3.367a14.38 14.38 0 0 1-3.117-4.762 14.42 14.42 0 0 1-1.055-5.59V72.078a14.84 14.84 0 0 1 .285-2.906c.191-.961.473-1.891.848-2.793s.832-1.762 1.375-2.578a14.87 14.87 0 0 1 1.852-2.258c.695-.691 1.445-1.309 2.258-1.852s1.672-1 2.578-1.375a14.86 14.86 0 0 1 2.793-.848 14.84 14.84 0 0 1 2.906-.285h119.16a14.78 14.78 0 0 1 2.906.285 14.9 14.9 0 0 1 2.797.848 14.94 14.94 0 0 1 2.574 1.375 14.87 14.87 0 0 1 4.109 4.109c.543.816 1.004 1.672 1.379 2.578a14.76 14.76 0 0 1 .844 2.793c.191.961.289 1.93.289 2.906zm0 0"/></g></svg>