<svg xmlns="http://www.w3.org/2000/svg" xmlns:xlink="http://www.w3.org/1999/xlink" width="300" zoomAndPan="magnify" viewBox="0 0 224.87999 225" height="300" preserveAspectRatio="xMidYMid meet" version="1.0"><defs><clipPath id="f3741805be"><path d="M 0 0.0585938 L 224.761719 0.0585938 L 224.761719 224.9375 L 0 224.9375 Z M 0 0.0585938 " clip-rule="nonzero"/></clipPath><clipPath id="09306fb4a6"><path d="M 35.015625 41.238281 L 174.867188 41.238281 L 174.867188 205.675781 L 35.015625 205.675781 Z M 35.015625 41.238281 " clip-rule="nonzero"/></clipPath><clipPath id="3582f47835"><path d="M 79.988281 41.238281 L 129.890625 41.238281 C 154.730469 41.238281 174.867188 61.375 174.867188 86.214844 L 174.867188 160.53125 C 174.867188 185.371094 154.730469 205.503906 129.890625 205.503906 L 79.988281 205.503906 C 55.152344 205.503906 35.015625 185.371094 35.015625 160.53125 L 35.015625 86.214844 C 35.015625 61.375 55.152344 41.238281 79.988281 41.238281 Z M 79.988281 41.238281 " clip-rule="nonzero"/></clipPath><clipPath id="4724c2614b"><path d="M 0.015625 0.238281 L 139.867188 0.238281 L 139.867188 164.628906 L 0.015625 164.628906 Z M 0.015625 0.238281 " clip-rule="nonzero"/></clipPath><clipPath id="1d8caef31c"><path d="M 44.988281 0.238281 L 94.890625 0.238281 C 119.730469 0.238281 139.867188 20.375 139.867188 45.214844 L 139.867188 119.53125 C 139.867188 144.371094 119.730469 164.503906 94.890625 164.503906 L 44.988281 164.503906 C 20.152344 164.503906 0.015625 144.371094 0.015625 119.53125 L 0.015625 45.214844 C 0.015625 20.375 20.152344 0.238281 44.988281 0.238281 Z M 44.988281 0.238281 " clip-rule="nonzero"/></clipPath><clipPath id="a86a31900e"><rect x="0" width="140" y="0" height="165"/></clipPath><clipPath id="3e3642fe15"><path d="M 0 0.0585938 L 224.761719 0.0585938 L 224.761719 224.9375 L 0 224.9375 Z M 0 0.0585938 " clip-rule="nonzero"/></clipPath><clipPath id="032daec5ac"><rect x="0" width="225" y="0" height="225"/></clipPath></defs><g clip-path="url(#f3741805be)"><g transform="matrix(1, 0, 0, 1, 0, -0.000000000000003234)"><g clip-path="url(#032daec5ac)"><g clip-path="url(#09306fb4a6)"><g clip-path="url(#3582f47835)"><g transform="matrix(1, 0, 0, 1, 35, 41)"><g clip-path="url(#a86a31900e)"><g clip-path="url(#4724c2614b)"><g clip-path="url(#1d8caef31c)"><path fill="#000000" d="M 0.015625 0.238281 L 139.867188 0.238281 L 139.867188 164.675781 L 0.015625 164.675781 Z M 0.015625 0.238281 " fill-opacity="1" fill-rule="nonzero"/></g></g></g></g></g></g><g clip-path="url(#3e3642fe15)"><path fill="#ffffff" d="M 112.441406 0.0585938 C 50.480469 0.0585938 0 50.539062 0 112.5 C 0 174.460938 50.480469 224.941406 112.441406 224.941406 C 174.398438 224.941406 224.878906 174.460938 224.878906 112.5 C 224.878906 50.539062 174.398438 0.0585938 112.441406 0.0585938 Z M 96.921875 58.679688 L 153.140625 102.894531 C 158.820312 107.347656 158.878906 115.957031 153.257812 120.464844 L 97.039062 166.203125 C 92.234375 170.125 85.148438 169.363281 81.226562 164.5625 C 77.300781 159.761719 78.0625 152.675781 82.867188 148.75 L 128.191406 111.855469 L 82.984375 76.367188 C 78.121094 72.5 77.300781 65.414062 81.109375 60.554688 C 85.441406 55.753906 91.707031 54.875 96.921875 58.679688 Z M 96.921875 58.679688 " fill-opacity="1" fill-rule="nonzero"/></g></g></g></g></svg>