<?xml version="1.0" encoding="UTF-8"?>
<svg id="Layer_1" xmlns="http://www.w3.org/2000/svg" version="1.1" viewBox="0 0 400 400">
  <!-- Generator: Adobe Illustrator 29.8.6, SVG Export Plug-In . SVG Version: 2.1.1 Build 1)  -->
  <defs>
    <style>
      .st0 {
        fill: #fff;
      }
    </style>
  </defs>
  <path class="st0" d="M289.83,203.72c-4.12-7.12-9.79-12.78-17-17-7.21-4.21-15.03-6.32-23.46-6.32-6.74,0-15.7,2.99-15.7,2.99,0,0,7.78-49.86-27.48-63.99-6.46-2.59-11.8-4.35-18.55-4.35-8.43,0-16.21,2.11-23.32,6.32-7.12,4.21-12.78,9.88-17,17-4.21,7.12-6.32,14.89-6.32,23.32v38.64h.03l.35,73.48c0,3.19-1.26,5.95-3.79,8.29-2.53,2.35-5.48,3.51-8.85,3.51-3.19,0-6-1.17-8.43-3.51-2.44-2.34-3.65-5.1-3.65-8.29V119.86c0-2.66-2.15-4.81-4.81-4.81h-19.04c-2.66,0-4.81,2.15-4.81,4.81v153.96c0,7.31,1.83,14.05,5.48,20.23,3.65,6.18,8.61,11.1,14.89,14.75,6.27,3.65,13.07,5.48,20.37,5.48s14.37-1.82,20.65-5.48c6.27-3.65,11.28-8.57,15.03-14.75,3.75-6.18,5.62-12.93,5.62-20.23l-.38-80.46v-31.66c0-4.87,1.78-9.08,5.34-12.64,3.56-3.56,7.77-5.34,12.65-5.34s9.36,1.74,12.93,5.2c3.56,3.47,5.34,7.73,5.34,12.79v102.5c0,6.96,5.64,12.6,12.6,12.6s12.6-5.64,12.6-12.6v-37.15c0-4.87,1.78-9.08,5.34-12.64,3.56-3.56,7.87-5.34,12.93-5.34s9.36,1.74,12.93,5.2c3.56,3.47,5.34,7.73,5.34,12.79v78.88c0,2.38,1.93,4.3,4.3,4.3h19.78c2.38,0,4.3-1.93,4.3-4.3v-78.88c0-8.43-2.06-16.2-6.18-23.32Z"/>
  <path class="st0" d="M325.42,204.88c-3.7,0-7.31-.93-10.78-1.97-1.77-.53-3.55.8-3.55,2.65v103.43c0,1.53,1.24,2.77,2.77,2.77h23.13c1.53,0,2.77-1.24,2.77-2.77v-103.43c0-1.85-1.78-3.18-3.55-2.65-3.47,1.04-7.08,1.97-10.78,1.97Z"/>
  <path class="st0" d="M243.55,173.82c2.58.41,6.56-4.07,9.26-4.07,23.81,0,43.43-16.53,46.51-37.95-2.58-.41-5.41.37-7.91-.67-26.86-11.23-48.63,7.15-47.87,42.69Z"/>
  <path class="st0" d="M328.51,126.25c-6.85-.42-20.35,2.63-22.9,9.71-2.56,12.6-5.4,18-14.74,25.74,0,18.61,14.44,34.25,33.27,35.41s36.41-13.67,37.62-33.24c1.21-19.57-13.67-36.41-33.24-37.62Z"/>
  <path class="st0" d="M73.66,119.57c0-2.36-1.68-4.22-3.58-3.93-14.28,2.17-25.33,17.1-25.33,35.21s11.05,33.04,25.33,35.21c1.91.29,3.58-1.58,3.58-3.93v-62.55Z"/>
  <path class="st0" d="M45,184.46c0,21.37,0,102.49,0,122.71,0,2.53,2.05,4.59,4.59,4.59h19.48c2.53,0,4.59-2.05,4.59-4.59v-112.62c-8.23.03-19.99-6.66-24.19-12.36-1.37-1.85-4.47-.02-4.47,2.28Z"/>
</svg>